<?xml version="1.0" encoding="UTF-8"?>
<svg version="1.1" xmlns="http://www.w3.org/2000/svg" width="1080" height="1080">
<path d="M0 0 C356.4 0 712.8 0 1080 0 C1080 356.4 1080 712.8 1080 1080 C723.6 1080 367.2 1080 0 1080 C0 723.6 0 367.2 0 0 Z " fill="#FEFEFE" transform="translate(0,0)"/>
<path d="M0 0 C3 0.4375 3 0.4375 4.9375 1.625 C6 3.4375 6 3.4375 5.74609375 5.73828125 C-0.50085016 28.33848146 -28.82570486 48.39375838 -47.9453125 59.3203125 C-64.96544371 68.69693408 -83.12833526 75.91358919 -101.91308594 80.88134766 C-104.02443665 81.44401225 -106.1247389 82.03955527 -108.2265625 82.63671875 C-135.44811014 90.12954095 -163.90749564 93.39760727 -192 95.4375 C-193.25256592 95.5317627 -194.50513184 95.62602539 -195.7956543 95.72314453 C-205.48166826 96.39772022 -215.14144893 96.6544027 -224.8503418 96.67773438 C-227.35561632 96.68767101 -229.86014294 96.71894414 -232.36523438 96.75 C-233.96874524 96.75651204 -235.5722618 96.76176951 -237.17578125 96.765625 C-237.91943436 96.7779718 -238.66308746 96.7903186 -239.42927551 96.80303955 C-244.49202938 96.7809843 -244.49202938 96.7809843 -246.96557617 95.10839844 C-248.58728029 92.48886977 -248.38222838 90.43162229 -248 87.4375 C-244.85706907 85.34221272 -244.02817238 85.17442454 -240.42895508 85.09033203 C-239.49572922 85.06318115 -238.56250336 85.03603027 -237.60099792 85.00805664 C-236.58411392 84.98735107 -235.56722992 84.96664551 -234.51953125 84.9453125 C-232.31980924 84.88219297 -230.12010276 84.81853056 -227.92041016 84.75439453 C-226.76083801 84.72363831 -225.60126587 84.69288208 -224.40655518 84.66119385 C-192.46205153 83.78398807 -160.34857513 82.05922289 -129 75.4375 C-128.37348541 75.31016479 -127.74697083 75.18282959 -127.10147095 75.05163574 C-116.22603022 72.83326305 -105.70944398 70.00271783 -95.19506836 66.44824219 C-92.93864099 65.68788448 -90.67600683 64.94871351 -88.41210938 64.2109375 C-74.9716504 59.75946272 -61.65656598 54.32019051 -49.75 46.5625 C-49.09926514 46.14524658 -48.44853027 45.72799316 -47.77807617 45.2980957 C-29.8328797 33.62003191 -16.28503701 19.83972291 -4.4140625 2.0625 C-3 0.4375 -3 0.4375 0 0 Z " fill="#070707" transform="translate(711,574.5625)"/>
<path d="M0 0 C1.64776611 1.27563477 1.64776611 1.27563477 3 3 C3.10510468 6.06996403 3.03357087 8.89078822 2.796875 11.9375 C2.73924988 12.82848389 2.68162476 13.71946777 2.62225342 14.63745117 C2.43468864 17.42682582 2.22155931 20.21313385 2 23 C1.93530518 23.83370117 1.87061035 24.66740234 1.80395508 25.52636719 C1.34267056 31.35644224 0.80703785 37.17838452 0.25 43 C0.12028305 44.36878799 0.12028305 44.36878799 -0.01205444 45.76522827 C-16.79426248 222.27535054 -16.79426248 222.27535054 -44.1875 247.1875 C-49.4830905 251.4477001 -53.24211575 252.64360802 -60 252 C-62.0625 250.3125 -62.0625 250.3125 -63 248 C-62.75925978 244.62963689 -62.41201979 243.41201979 -60 241 C-58.9275 240.773125 -57.855 240.54625 -56.75 240.3125 C-51.35187689 238.42315691 -48.55548046 234.8935822 -45.86621094 229.89086914 C-44.82891134 227.57687346 -43.89650921 225.24707749 -43 222.875 C-42.66315186 222.00246582 -42.32630371 221.12993164 -41.97924805 220.23095703 C-35.20216644 202.26261503 -31.32708523 183.87101701 -28 165 C-27.78456543 163.78586426 -27.56913086 162.57172852 -27.34716797 161.32080078 C-25.85658531 152.8873276 -24.40346061 144.44839085 -23 136 C-22.77731445 134.71528809 -22.55462891 133.43057617 -22.32519531 132.10693359 C-19.8007043 117.20092525 -18.19550899 102.17444794 -16.52050781 87.15478516 C-16.09298773 83.32184994 -15.65753767 79.4898665 -15.21984863 75.65808105 C-13.19438215 57.88917262 -11.40138226 40.11676236 -9.95092773 22.2911377 C-8.43786797 3.70058875 -8.43786797 3.70058875 -6.75 1 C-4.31044362 -0.39403222 -2.76411292 -0.41461694 0 0 Z " fill="#060606" transform="translate(450,329)"/>
<path d="M0 0 C2.9375 -0.4375 2.9375 -0.4375 6 0 C10.408493 4.50368226 9.53339057 9.87839555 9.5 15.8125 C9.49500488 16.9679834 9.49000977 18.1234668 9.48486328 19.31396484 C8.45998094 71.03164845 -25.78660587 111.86281704 -61.06103516 146.16308594 C-64.3484764 149.27750396 -67.79284263 152.12560882 -71.359375 154.91796875 C-73.77257906 156.82068733 -76.09888405 158.79914993 -78.41650391 160.81640625 C-87.20629667 168.42717963 -96.51511564 175.28502441 -106 182 C-106.60650391 182.42951965 -107.21300781 182.85903931 -107.83789062 183.30157471 C-111.9647825 186.21885593 -116.10810339 189.11104437 -120.26837158 191.98052979 C-121.66853825 192.94890233 -123.06534537 193.92215121 -124.4586792 194.90032959 C-126.42872743 196.28058179 -128.41137675 197.64048967 -130.3984375 198.99609375 C-130.99043945 199.41617203 -131.58244141 199.83625031 -132.19238281 200.26905823 C-134.89738914 202.08574199 -136.49230079 203.0311714 -139.79541016 202.82836914 C-142.30616605 201.88495887 -143.54162429 201.26858444 -145 199 C-145.1875 196.6875 -145.1875 196.6875 -144 194 C-138.92310182 189.54016584 -133.01562515 185.94896265 -127.375 182.25 C-109.69810622 170.54478414 -93.06763743 157.8281697 -77 144 C-75.92685547 143.07960938 -75.92685547 143.07960938 -74.83203125 142.140625 C-63.57635949 132.39344533 -52.65369183 122.50315937 -43.31640625 110.875 C-41.82504622 109.0240034 -40.31338254 107.18909151 -38.77734375 105.375 C-15.51495807 77.80476512 -3.40567809 47.02951085 -2.48242188 11 C-2.44826172 10.01257813 -2.41410156 9.02515625 -2.37890625 8.0078125 C-2.34132202 6.67194092 -2.34132202 6.67194092 -2.30297852 5.30908203 C-2 3 -2 3 0 0 Z " fill="#050505" transform="translate(592,421)"/>
</svg>
